#!OML:ASF E:\id_vita\Project 1\Capture day 1\Session 1\Male1.ASF
:FULLY-SPECIFIED
:DEGREES
500
root 21.7541 16.2074 1.36272 82.5205 93.769 79.479
lowerback -4.63944 0.800769 1.74551
upperback 1.57879 0.918248 1.27728
thorax 4.23968 0.489336 0.415898
lowerneck -8.00324 -0.201861 6.53975
upperneck 7.72839 -1.1193 1.46088
head 3.94803 -0.256597 -0.73829
rclavicle 1.21103e-014 1.47101e-014
rhumerus -22.8692 -3.87535 -85.0344
rradius 27.0729
rwrist 2.73723
rhand -24.4455 35.9973
rfingers 7.12502
rthumb 2.04711 6.02736
lclavicle 1.21103e-014 1.47101e-014
lhumerus -31.1893 19.1191 76.0522
lradius 5.44736
lwrist -7.48221
lhand -16.2267 50.3927
lfingers 7.12502
lthumb 9.98148 80.136
rfemur 6.99999 -0.403701 29.2701
rtibia 9.28601
rfoot -15.9493 -5.64797
rtoes -8.89676
lfemur -30.5172 1.25033 -17.3173
ltibia 31.0675
lfoot -14.9291 -6.6595
ltoes 3.58334
501
root 21.8717 16.2104 1.3569 87.7247 93.9794 84.5639
lowerback -4.68593 0.906686 2.03877
upperback 1.57254 1.03885 1.33511
thorax 4.26496 0.556872 0.322236
lowerneck -8.5618 -0.247556 6.95616
upperneck 8.10317 -1.24088 0.883356
head 4.18981 -0.318752 -1.02273
rclavicle 1.35205e-014 3.77691e-015
rhumerus -22.6103 -3.4096 -85.0941
rradius 27.0355
rwrist 2.77097
rhand -24.4406 35.8753
rfingers 7.12502
rthumb 2.05181 5.90543
lclavicle 1.35205e-014 3.77691e-015
lhumerus -31.2284 19.1122 76.0925
lradius 5.3765
lwrist -7.23333
lhand -16.0307 50.5789
lfingers 7.12502
lthumb 10.1705 80.3131
rfemur 8.77245 -0.172498 29.4843
rtibia 6.28186
rfoot -14.7335 -5.02011
rtoes -9.29365
lfemur -30.8441 0.96861 -16.938
ltibia 29.2652
lfoot -14.0592 -5.66141
ltoes 3.14713
502
root 21.9947 16.216 1.35087 91.5847 93.9566 88.2995
lowerback -4.79902 0.960368 2.04928
upperback 1.53402 1.1078 1.3033
thorax 4.29054 0.591471 0.29089
lowerneck -8.25735 -0.134375 6.67169
upperneck 7.87889 -1.05162 1.22504
head 4.05454 -0.225402 -0.840285
rclavicle 1.11382e-014 1.07841e-014
rhumerus -22.3993 -3.13973 -85.1646
rradius 26.8868
rwrist 2.92995
rhand -24.4979 36.4137
rfingers 7.12502
rthumb 1.9965 6.44333
lclavicle 1.11382e-014 1.07841e-014
lhumerus -31.5052 19.0884 75.9705
lradius 5.45402
lwrist -6.97892
lhand -15.8924 50.8428
lfingers 7.12502
lthumb 10.3039 80.5704
rfemur 12.1544 0.000523321 29.4042
rtibia -1.59028e-014
rfoot -12.0863 -3.51659
rtoes -10.5728
lfemur -31.1541 0.471306 -16.7673
ltibia 27.7298
lfoot -13.3658 -4.63876
ltoes 2.97402
503
root 22.1186 16.2222 1.34497 95.8631 94.0913 92.5497
lowerback -4.806 1.00902 2.21347
upperback 1.46349 1.16383 1.29579
thorax 4.22556 0.623033 0.195068
lowerneck -7.94131 -0.092084 6.65569
upperneck 7.76846 -0.961374 1.2068
head 3.95448 -0.187481 -0.835124
rclavicle -2.11457e-014 -1.23743e-014
rhumerus -22.3371 -3.02602 -85.2661
rradius 26.8104
rwrist 3.12658
rhand -24.4649 36.6442
rfingers 7.12502
rthumb 2.02832 6.67407
lclavicle -2.11457e-014 -1.23743e-014
lhumerus -31.8457 19.0962 75.7704
lradius 5.37883
lwrist -6.67964
lhand -16.106 50.9838
lfingers 7.12502
lthumb 10.0979 80.7215
rfemur 12.5871 0.204303 29.4662
rtibia 3.81667e-014
rfoot -12.2512 -3.35677
rtoes -8.65816
lfemur -31.396 -0.191532 -16.337
ltibia 26.4583
lfoot -12.7657 -3.41641
ltoes 2.42685
504
root 22.2418 16.2273 1.32988 99.6833 94.2962 96.2421
lowerback -4.98513 1.09823 2.58095
upperback 1.45468 1.25473 1.25215
thorax 4.32873 0.67908 -0.0441752
lowerneck -7.99975 -0.0690214 6.81904
upperneck 7.83625 -0.940762 1.02122
head 3.99133 -0.17917 -0.926553
rclavicle 1.05418e-014 1.11319e-014
rhumerus -22.1987 -2.89768 -85.3834
rradius 26.8174
rwrist 3.24513
rhand -24.3535 36.2607
rfingers 7.12502
rthumb 2.13598 6.29166
lclavicle 1.05418e-014 1.11319e-014
lhumerus -31.802 19.0925 75.7115
lradius 5.08835
lwrist -6.36485
lhand -16.1601 51.0494
lfingers 7.12502
lthumb 10.0457 80.7896
rfemur 12.9253 0.421368 29.5319
rtibia -6.36111e-015
rfoot -12.2557 -3.24211
rtoes -9.7196
lfemur -31.7714 -0.916039 -15.8657
ltibia 25.4392
lfoot -12.5038 -2.05573
ltoes 1.28594
505
root 22.3656 16.2259 1.31119 102.277 94.448 98.5866
lowerback -5.30422 1.17178 2.9174
upperback 1.47335 1.31957 1.18719
thorax 4.54028 0.723024 -0.286407
lowerneck -8.30428 0.0270516 6.74848
upperneck 7.94121 -0.848865 1.21104
head 4.09325 -0.12128 -0.847306
rclavicle -9.7653e-015 -4.96962e-015
rhumerus -21.9775 -2.89119 -85.4696
rradius 26.8057
rwrist 3.42966
rhand -24.1909 36.1564
rfingers 7.12502
rthumb 2.29304 6.18895
lclavicle -9.7653e-015 -4.96962e-015
lhumerus -31.7679 19.0687 75.6793
lradius 5.10219
lwrist -6.08802
lhand -15.9556 51.0155
lfingers 7.12502
lthumb 10.243 80.7461
rfemur 13.1264 0.573342 29.5168
rtibia -3.18055e-014
rfoot -12.2602 -3.19297
rtoes -9.38176
lfemur -32.2732 -1.7296 -15.4481
ltibia 24.6898
lfoot -12.8792 -0.471732
ltoes 1.32564
506
root 22.4876 16.218 1.30135 104.464 94.6478 100.677
lowerback -5.37566 1.18955 3.13418
upperback 1.45371 1.32574 1.1934
thorax 4.56586 0.73227 -0.399359
lowerneck -8.37061 0.14133 6.69677
upperneck 7.95041 -0.70688 1.34612
head 4.11447 -0.0450974 -0.784247
rclavicle 1.93318e-014 1.0635e-014
rhumerus -22.081 -3.25876 -85.5047
rradius 27.0247
rwrist 3.85022
rhand -23.899 36.3947
rfingers 7.12502
rthumb 2.57494 6.43052
lclavicle 1.93318e-014 1.0635e-014
lhumerus -31.9504 19.1449 75.5743
lradius 5.15424
lwrist -5.87964
lhand -15.8222 50.938
lfingers 7.12502
lthumb 10.3716 80.6622
rfemur 13.4778 0.695188 29.5972
rtibia -4.77083e-014
rfoot -12.4033 -3.07775
rtoes -10.5355
lfemur -32.5815 -2.60088 -14.9058
ltibia 24.166
lfoot -13.7127 1.35339
ltoes 2.55485
507
root 22.6071 16.2115 1.29382 106.895 94.7872 103.091
lowerback -5.30358 1.21434 3.23082
upperback 1.36506 1.35774 1.19182
thorax 4.43622 0.748677 -0.45513
lowerneck -8.07069 0.209165 7.03112
upperneck 7.79556 -0.591279 0.945157
head 4.00432 -0.00471142 -0.970121
rclavicle 9.06955e-015 8.74653e-015
rhumerus -22.1382 -3.13205 -85.5944
rradius 26.936
rwrist 3.6801
rhand -23.967 36.6512
rfingers 7.12502
rthumb 2.50927 6.68617
lclavicle 9.06955e-015 8.74653e-015
lhumerus -32.1535 19.1975 75.4824
lradius 4.99642
lwrist -5.68712
lhand -15.7002 50.7812
lfingers 7.12502
lthumb 10.4894 80.4995
rfemur 13.9174 0.824743 29.6077
rtibia -2.22639e-014
rfoot -12.5372 -2.82309
rtoes -9.83498
lfemur -32.7974 -3.36475 -14.4946
ltibia 23.7809
lfoot -14.5071 3.05351
ltoes 3.13744
508
root 22.7284 16.2065 1.28109 110.021 94.9288 106.183
lowerback -5.23128 1.28471 3.36914
upperback 1.27697 1.44922 1.14989
thorax 4.31153 0.795913 -0.570563
lowerneck -8.0558 0.189976 7.15063
upperneck 7.86421 -0.615092 0.749027
head 4.02598 -0.0206603 -1.05964
rclavicle 9.98272e-015 -9.83984e-015
rhumerus -22.2008 -2.98703 -85.6872
rradius 26.8766
rwrist 3.58699
rhand -24.1022 36.7023
rfingers 7.12502
rthumb 2.37868 6.73579
lclavicle 9.98272e-015 -9.83984e-015
lhumerus -32.4397 19.1751 75.4071
lradius 5.04612
lwrist -5.5149
lhand -15.5486 50.7219
lfingers 7.12502
lthumb 10.6356 80.4327
rfemur 14.3466 1.02533 29.5666
rtibia 2.22639e-014
rfoot -12.5623 -2.57274
rtoes -7.07174
lfemur -32.9606 -3.90636 -14.2286
ltibia 23.4671
lfoot -14.9414 4.54138
ltoes 2.58092
509
root 22.8578 16.2006 1.26753 113.081 94.9608 109.221
lowerback -5.3525 1.29539 3.32373
upperback 1.33874 1.45978 1.13186
thorax 4.44408 0.802115 -0.558898
lowerneck -7.97389 0.183123 7.12384
upperneck 7.62903 -0.602843 0.669034
head 3.92583 -0.0280444 -1.07921
rclavicle -7.27428e-015 3.47873e-015
rhumerus -21.9869 -2.93068 -85.7404
rradius 26.7297
rwrist 3.5403
rhand -24.0244 36.6027
rfingers 7.12502
rthumb 2.45378 6.63707
lclavicle -7.27428e-015 3.47873e-015
lhumerus -32.4657 19.3797 75.4356
lradius 5.02903
lwrist -5.41556
lhand -15.6338 50.8092
lfingers 7.12502
lthumb 10.5535 80.5242
rfemur 14.8269 1.19124 29.3876
rtibia -3.18055e-015
rfoot -12.653 -2.42971
rtoes -10.4416
lfemur -32.9879 -4.30844 -14.1903
ltibia 23.2165
lfoot -15.1134 5.71457
ltoes 2.4215
